<svg width="244" height="125" viewBox="0 0 244 125" fill="none" xmlns="http://www.w3.org/2000/svg">
<rect x="84.5599" y="0.684814" width="74.88" height="74.88" rx="37.44" fill="#155DFC"/>
<path d="M135.577 24.3966C131.402 24.3966 127.677 26.2554 125.162 29.1764L125.125 29.2206C124.823 29.5747 124.543 29.9361 124.277 30.3197L121.319 34.1479L114.917 42.4461L114.209 43.3608L113.773 43.9288C112.342 45.3671 110.38 46.2154 108.226 46.2154C103.86 46.2154 100.29 42.7928 100.29 37.9762C100.29 33.1595 103.86 29.737 108.226 29.737C111.103 29.737 113.633 31.2565 115.02 33.6759L118.767 29.3608C116.259 26.3292 112.468 24.3966 108.234 24.3966C100.673 24.3966 94.5436 30.4893 94.5436 37.9762C94.5436 45.463 100.673 51.5557 108.234 51.5557C111.745 51.5557 114.946 50.2133 117.366 48.0299L128.88 33.4546V33.4767C130.281 31.1679 132.767 29.737 135.577 29.737C139.907 29.737 143.477 33.1595 143.477 37.9762C143.477 42.7928 139.907 46.2154 135.577 46.2154C131.248 46.2154 127.641 42.7928 127.641 37.9762L123.112 43.56C125.258 48.266 130.023 51.5557 135.577 51.5557C143.101 51.5557 149.231 45.463 149.231 37.9762C149.231 30.4893 143.101 24.3966 135.577 24.3966" fill="white"/>
<circle cx="2.08" cy="2.08" r="2.08" transform="matrix(1 0 0 -1 133.327 40.2642)" fill="white"/>
<path d="M17.8217 94.9935C22.2289 94.9935 25.1045 96.4062 27.98 98.5496L25.3899 103.323C23.329 101.744 21.0592 100.575 17.8635 100.575C12.1194 100.575 8.63813 104.534 8.63813 109.593C8.63813 114.653 12.1194 118.612 17.8635 118.612C21.0592 118.612 23.329 117.443 25.3899 115.864L27.98 120.637C25.1045 122.781 22.2359 124.193 17.8217 124.193C8.23431 124.193 2.28833 117.478 2.28833 109.593C2.28833 101.709 8.23431 94.9935 17.8217 94.9935" fill="#020618"/>
<path d="M46.5925 95.0544C54.683 95.0544 61.2765 101.603 61.2765 109.654C61.2765 117.706 54.683 124.254 46.5925 124.254C38.5021 124.254 31.8668 117.706 31.8668 109.654C31.8668 101.603 38.4603 95.0544 46.5925 95.0544M46.5925 118.506C51.2435 118.506 55.0868 114.825 55.0868 109.647C55.0868 104.47 51.2435 100.789 46.5925 100.789C41.9416 100.789 38.0565 104.47 38.0565 109.647C38.0565 114.825 41.8998 118.506 46.5925 118.506Z" fill="#020618"/>
<path d="M68.387 123.291V94.9823H80.8081C86.6775 94.9823 89.9081 99.269 89.9081 104.245C89.9081 109.22 86.6287 113.305 80.8081 113.305H74.6602V123.291H68.387V123.291ZM80.0004 108.371C82.2284 108.371 83.6 106.632 83.6 104.203C83.6 101.774 82.2215 99.958 80.0004 99.958H74.6602V108.371H80.0004Z" fill="#020618"/>
<path d="M91.9852 123.28L103.376 94.9935H109.742L121.3 123.28H114.468L112.356 117.989V118.072H100.755V117.989L98.7293 123.28H91.9779H91.9852ZM102.533 112.933H110.504L106.584 101.62L102.533 112.933V112.933Z" fill="#020618"/>
<path d="M137.185 123.291H126.581V94.9823H137.185C146.452 94.9823 152.238 101.329 152.238 109.137C152.238 116.945 146.452 123.291 137.185 123.291ZM137.185 99.958H132.855V118.316H137.185C142.567 118.316 145.923 114.189 145.923 109.137C145.923 104.085 142.567 99.958 137.185 99.958Z" fill="#020618"/>
<path d="M172.202 94.9935C180.292 94.9935 186.886 101.542 186.886 109.593C186.886 117.645 180.292 124.193 172.202 124.193C164.112 124.193 157.476 117.645 157.476 109.593C157.476 101.542 164.07 94.9935 172.202 94.9935M172.202 118.445C176.853 118.445 180.696 114.764 180.696 109.587C180.696 104.409 176.853 100.728 172.202 100.728C167.551 100.728 163.666 104.409 163.666 109.587C163.666 114.764 167.509 118.445 172.202 118.445Z" fill="#020618"/>
<path d="M199.824 123.52L211.214 95.2329H217.581L229.138 123.52H222.307L220.194 118.228V118.311H208.593V118.228L206.568 123.52H199.817H199.824ZM210.372 113.173H218.343L214.423 101.86L210.372 113.173V113.173Z" fill="#020618"/>
<path d="M241.712 123.759H236.178V94.9935H241.712V123.759Z" fill="#020618"/>
</svg>
