<svg width="276" height="99" viewBox="0 0 276 99" fill="none" xmlns="http://www.w3.org/2000/svg">
<rect x="0.283203" y="12.0601" width="74.88" height="74.88" rx="37.44" fill="#155DFC"/>
<path d="M51.3006 35.772C47.1257 35.772 43.4007 37.6308 40.8854 40.5517L40.8485 40.596C40.5461 40.9501 40.2658 41.3115 40.0003 41.6951L37.0424 45.5233L30.6399 53.8215L29.9318 54.7362L29.4966 55.3041C28.0656 56.7425 26.1035 57.5907 23.9497 57.5907C19.583 57.5907 16.0129 54.1682 16.0129 49.3515C16.0129 44.5349 19.583 41.1123 23.9497 41.1123C26.8264 41.1123 29.3564 42.6318 30.7432 45.0512L34.4903 40.7361C31.9824 37.7045 28.191 35.772 23.9571 35.772C16.3965 35.772 10.2668 41.8647 10.2668 49.3515C10.2668 56.8384 16.3965 62.9311 23.9571 62.9311C27.4681 62.9311 30.6694 61.5886 33.0888 59.4053L44.603 44.8299V44.8521C46.0045 42.5433 48.4903 41.1123 51.3006 41.1123C55.6304 41.1123 59.2005 44.5349 59.2005 49.3515C59.2005 54.1682 55.6304 57.5907 51.3006 57.5907C46.9708 57.5907 43.3638 54.1682 43.3638 49.3515L38.8348 54.9353C40.9813 59.6413 45.7463 62.9311 51.3006 62.9311C58.8243 62.9311 64.9539 56.8384 64.9539 49.3515C64.9539 41.8647 58.8243 35.772 51.3006 35.772" fill="white"/>
<circle cx="2.08" cy="2.08" r="2.08" transform="matrix(1 0 0 -1 49.0505 51.6394)" fill="white"/>
<path d="M106.696 34.8391C111.104 34.8391 113.979 36.2518 116.855 38.3952L114.265 43.169C112.204 41.5893 109.934 40.4202 106.738 40.4202C100.994 40.4202 97.5129 44.3799 97.5129 49.4391C97.5129 54.4982 100.994 58.4579 106.738 58.4579C109.934 58.4579 112.204 57.2888 114.265 55.7091L116.855 60.483C113.979 62.6263 111.111 64.039 106.696 64.039C97.1091 64.039 91.1631 57.3236 91.1631 49.4391C91.1631 41.5545 97.1091 34.8391 106.696 34.8391" fill="#020618"/>
<path d="M135.467 34.8999C143.558 34.8999 150.151 41.4483 150.151 49.4999C150.151 57.5514 143.558 64.0998 135.467 64.0998C127.377 64.0998 120.741 57.5514 120.741 49.4999C120.741 41.4483 127.335 34.8999 135.467 34.8999M135.467 58.3517C140.118 58.3517 143.961 54.6704 143.961 49.4929C143.961 44.3154 140.118 40.6341 135.467 40.6341C130.816 40.6341 126.931 44.3154 126.931 49.4929C126.931 54.6704 130.774 58.3517 135.467 58.3517Z" fill="#020618"/>
<path d="M157.262 63.137V34.8279H169.683C175.552 34.8279 178.783 39.1146 178.783 44.0903C178.783 49.066 175.503 53.1509 169.683 53.1509H163.535V63.137H157.262V63.137ZM168.875 48.217C171.103 48.217 172.475 46.4772 172.475 44.0485C172.475 41.6199 171.096 39.8036 168.875 39.8036H163.535V48.217H168.875Z" fill="#020618"/>
<path d="M180.86 63.1258L192.25 34.8391H198.617L210.174 63.1258H203.343L201.231 57.8342V57.9177H189.63V57.8342L187.604 63.1258H180.853H180.86ZM191.408 52.7791H199.379L195.459 41.4658L191.408 52.7791V52.7791Z" fill="#020618"/>
<path d="M226.06 63.137H215.456V34.8279H226.06C235.327 34.8279 241.113 41.1745 241.113 48.9825C241.113 56.7904 235.327 63.137 226.06 63.137ZM226.06 39.8036H221.73V58.1614H226.06C231.442 58.1614 234.798 54.0347 234.798 48.9825C234.798 43.9302 231.442 39.8036 226.06 39.8036Z" fill="#020618"/>
<path d="M261.077 34.8391C269.167 34.8391 275.761 41.3875 275.761 49.4391C275.761 57.4906 269.167 64.039 261.077 64.039C252.986 64.039 246.351 57.4906 246.351 49.4391C246.351 41.3875 252.945 34.8391 261.077 34.8391M261.077 58.2909C265.728 58.2909 269.571 54.6096 269.571 49.4321C269.571 44.2546 265.728 40.5733 261.077 40.5733C256.426 40.5733 252.541 44.2546 252.541 49.4321C252.541 54.6096 256.384 58.2909 261.077 58.2909Z" fill="#020618"/>
</svg>
