<svg width="57" height="56" viewBox="0 0 57 56" fill="none" xmlns="http://www.w3.org/2000/svg">
<g filter="url(#filter0_d_528_156)">
<path d="M28.3351 0.935242C13.7037 0.935242 1.93506 12.7675 1.93506 27.3352C1.93506 41.903 13.7037 53.7352 28.3351 53.7352C42.9664 53.7352 54.7351 41.903 54.7351 27.3352C54.7351 12.7675 42.9028 0.935242 28.3351 0.935242ZM44.3659 15.4393L28.9712 40.7579C28.7167 41.2032 28.2078 41.2668 27.8261 41.0124L23.564 38.1497L19.3018 41.0124C18.9837 41.2668 18.4748 41.0124 18.4748 40.5671V34.6509L38.0045 20.0196L14.976 32.2972L9.88687 28.7984C9.31434 28.4167 9.44156 27.5897 10.0777 27.3352L44.1114 15.0577C44.3023 14.9304 44.5567 15.2485 44.3659 15.4393Z" fill="#193CB8"/>
</g>
<defs>
<filter id="filter0_d_528_156" x="0.527058" y="0.231242" width="55.6158" height="55.616" filterUnits="userSpaceOnUse" color-interpolation-filters="sRGB">
<feFlood flood-opacity="0" result="BackgroundImageFix"/>
<feColorMatrix in="SourceAlpha" type="matrix" values="0 0 0 0 0 0 0 0 0 0 0 0 0 0 0 0 0 0 127 0" result="hardAlpha"/>
<feOffset dy="0.704"/>
<feGaussianBlur stdDeviation="0.704"/>
<feColorMatrix type="matrix" values="0 0 0 0 0 0 0 0 0 0 0 0 0 0 0 0 0 0 0.05 0"/>
<feBlend mode="normal" in2="BackgroundImageFix" result="effect1_dropShadow_528_156"/>
<feBlend mode="normal" in="SourceGraphic" in2="effect1_dropShadow_528_156" result="shape"/>
</filter>
</defs>
</svg>
